<?xml version="1.0" encoding="UTF-8"?>
<!DOCTYPE svg PUBLIC "-//W3C//DTD SVG 1.1//EN" "http://www.w3.org/Graphics/SVG/1.1/DTD/svg11.dtd">
<svg xmlns="http://www.w3.org/2000/svg" version="1.1" width="500px" height="500px" style="shape-rendering:geometricPrecision; text-rendering:geometricPrecision; image-rendering:optimizeQuality; fill-rule:evenodd; clip-rule:evenodd" xmlns:xlink="http://www.w3.org/1999/xlink">
<g><path style="opacity:0.996" fill="#110b07" d="M 267.5,150.5 C 270.854,152.258 274.521,153.258 278.5,153.5C 280.214,154.738 282.214,155.405 284.5,155.5C 285.78,156.931 287.447,157.598 289.5,157.5C 290.492,157.328 291.158,157.662 291.5,158.5C 293.849,160.341 296.515,161.674 299.5,162.5C 300.492,162.328 301.158,162.662 301.5,163.5C 301.973,164.906 302.973,165.573 304.5,165.5C 305.035,167.446 306.368,168.446 308.5,168.5C 308.973,169.906 309.973,170.573 311.5,170.5C 312.539,172.531 314.205,173.864 316.5,174.5C 316.5,176.5 317.5,177.5 319.5,177.5C 320.5,177.833 321.167,178.5 321.5,179.5C 322.757,182.427 324.757,184.761 327.5,186.5C 327.738,188.404 328.738,189.738 330.5,190.5C 330.427,192.027 331.094,193.027 332.5,193.5C 332.427,195.027 333.094,196.027 334.5,196.5C 334.427,198.027 335.094,199.027 336.5,199.5C 342.848,211.918 347.181,224.918 349.5,238.5C 349.5,245.833 349.5,253.167 349.5,260.5C 340.346,310.487 310.679,339.987 260.5,349C 253.167,349.667 245.833,349.667 238.5,349C 232.498,347.766 226.498,346.599 220.5,345.5C 216.134,343.234 211.467,341.567 206.5,340.5C 204.664,338.412 202.331,337.079 199.5,336.5C 199.027,335.094 198.027,334.427 196.5,334.5C 195.508,334.672 194.842,334.338 194.5,333.5C 193.738,331.738 192.404,330.738 190.5,330.5C 189.738,328.738 188.404,327.738 186.5,327.5C 184.761,324.757 182.427,322.757 179.5,321.5C 178.5,321.167 177.833,320.5 177.5,319.5C 177.5,318.167 176.833,317.5 175.5,317.5C 174.92,315.251 173.587,313.585 171.5,312.5C 170.833,312.5 170.5,312.167 170.5,311.5C 170.573,309.973 169.906,308.973 168.5,308.5C 167.026,307.564 166.026,306.23 165.5,304.5C 165.715,302.821 165.048,301.821 163.5,301.5C 162.662,301.158 162.328,300.492 162.5,299.5C 161.341,295.849 159.674,292.515 157.5,289.5C 157.598,287.447 156.931,285.78 155.5,284.5C 155.405,282.214 154.738,280.214 153.5,278.5C 152.582,272.289 151.249,266.289 149.5,260.5C 149.5,253.167 149.5,245.833 149.5,238.5C 151.069,233.006 152.403,227.34 153.5,221.5C 153.5,220.833 153.5,220.167 153.5,219.5C 155.213,218.365 155.88,216.698 155.5,214.5C 155.402,212.447 156.069,210.78 157.5,209.5C 159.674,206.485 161.341,203.151 162.5,199.5C 163.906,199.027 164.573,198.027 164.5,196.5C 164.328,195.508 164.662,194.842 165.5,194.5C 167.262,193.738 168.262,192.404 168.5,190.5C 169.906,190.027 170.573,189.027 170.5,187.5C 175.833,182.833 180.833,177.833 185.5,172.5C 187.749,171.92 189.415,170.587 190.5,168.5C 192.027,168.573 193.027,167.906 193.5,166.5C 195.027,166.573 196.027,165.906 196.5,164.5C 198.027,164.573 199.027,163.906 199.5,162.5C 204.73,160.381 209.73,158.048 214.5,155.5C 216.786,155.405 218.786,154.738 220.5,153.5C 220.833,153.5 221.167,153.5 221.5,153.5C 224.01,153.073 226.343,152.407 228.5,151.5C 241.323,150.505 254.323,150.171 267.5,150.5 Z"/></g>
<g><path style="opacity:0.014" fill="#d3d2d1" d="M 228.5,151.5 C 226.343,152.407 224.01,153.073 221.5,153.5C 221.611,152.883 221.944,152.383 222.5,152C 224.473,151.505 226.473,151.338 228.5,151.5 Z"/></g>
<g><path style="opacity:0.02" fill="#e3e2e2" d="M 267.5,150.5 C 271.525,150.63 275.191,151.63 278.5,153.5C 274.521,153.258 270.854,152.258 267.5,150.5 Z"/></g>
<g><path style="opacity:0.014" fill="#dad9d9" d="M 220.5,153.5 C 218.786,154.738 216.786,155.405 214.5,155.5C 216.102,153.926 218.102,153.259 220.5,153.5 Z"/></g>
<g><path style="opacity:0.024" fill="#dadad9" d="M 278.5,153.5 C 280.898,153.259 282.898,153.926 284.5,155.5C 282.214,155.405 280.214,154.738 278.5,153.5 Z"/></g>
<g><path style="opacity:0.118" fill="#c4c3c3" d="M 284.5,155.5 C 286.553,155.402 288.22,156.069 289.5,157.5C 287.447,157.598 285.78,156.931 284.5,155.5 Z"/></g>
<g><path style="opacity:0.039" fill="#c6c5c4" d="M 214.5,155.5 C 209.73,158.048 204.73,160.381 199.5,162.5C 203.808,158.848 208.808,156.514 214.5,155.5 Z"/></g>
<g><path style="opacity:0.047" fill="#dad9d8" d="M 291.5,158.5 C 294.754,158.794 297.421,160.127 299.5,162.5C 296.515,161.674 293.849,160.341 291.5,158.5 Z"/></g>
<g><path style="opacity:0.294" fill="#b7b5b4" d="M 199.5,162.5 C 199.027,163.906 198.027,164.573 196.5,164.5C 196.973,163.094 197.973,162.427 199.5,162.5 Z"/></g>
<g><path style="opacity:0.004" fill="#e1e1e1" d="M 301.5,163.5 C 303.027,163.427 304.027,164.094 304.5,165.5C 302.973,165.573 301.973,164.906 301.5,163.5 Z"/></g>
<g><path style="opacity:0.384" fill="#959391" d="M 196.5,164.5 C 196.027,165.906 195.027,166.573 193.5,166.5C 193.973,165.094 194.973,164.427 196.5,164.5 Z"/></g>
<g><path style="opacity:1" fill="#a89957" d="M 249.5,166.5 C 249.5,183.5 249.5,200.5 249.5,217.5C 244.156,217.334 238.823,217.501 233.5,218C 232.333,219.167 231.167,220.333 230,221.5C 225.616,231.15 222.116,241.15 219.5,251.5C 219.577,253.299 220.077,254.966 221,256.5C 228.9,265.069 237.4,272.903 246.5,280C 247.448,280.483 248.448,280.649 249.5,280.5C 249.5,289.833 249.5,299.167 249.5,308.5C 241.826,308.334 234.159,308.5 226.5,309C 221.039,313.084 218.039,318.584 217.5,325.5C 206.263,321.533 196.597,315.033 188.5,306C 191,303.5 193.5,301 196,298.5C 195.278,286.651 192.278,275.318 187,264.5C 185.833,263.333 184.667,262.167 183.5,261C 177.843,260.501 172.176,260.334 166.5,260.5C 164.255,241.054 168.255,223.054 178.5,206.5C 179.002,205.479 179.668,205.312 180.5,206C 183.468,209.147 186.802,211.814 190.5,214C 193.594,214.652 196.594,214.318 199.5,213C 207.333,205.833 215.167,198.667 223,191.5C 223.958,189.801 224.458,187.967 224.5,186C 223.675,181.356 222.341,176.856 220.5,172.5C 220.709,171.914 221.043,171.414 221.5,171C 230.576,167.876 239.909,166.376 249.5,166.5 Z"/></g>
<g><path style="opacity:1" fill="#c6b367" d="M 249.5,166.5 C 261.122,166.434 272.122,168.934 282.5,174C 279.285,179.255 278.452,184.755 280,190.5C 287.9,199.069 296.4,206.903 305.5,214C 311.951,215.028 317.118,212.861 321,207.5C 330.892,223.789 334.725,241.456 332.5,260.5C 326.824,260.334 321.157,260.501 315.5,261C 314.667,261.833 313.833,262.667 313,263.5C 308.904,273.456 305.404,283.622 302.5,294C 302.741,295.984 303.408,297.817 304.5,299.5C 306.833,301.167 308.833,303.167 310.5,305.5C 303.36,314.562 294.36,320.896 283.5,324.5C 282.784,317.55 279.45,312.383 273.5,309C 265.507,308.5 257.507,308.334 249.5,308.5C 249.5,299.167 249.5,289.833 249.5,280.5C 251.655,280.628 253.655,280.128 255.5,279C 263.76,271.951 271.927,264.784 280,257.5C 280.985,255.634 281.485,253.634 281.5,251.5C 279.1,240.801 275.6,230.467 271,220.5C 269.829,219.107 268.329,218.273 266.5,218C 260.843,217.501 255.176,217.334 249.5,217.5C 249.5,200.5 249.5,183.5 249.5,166.5 Z"/></g>
<g><path style="opacity:0.525" fill="#8b8886" d="M 304.5,165.5 C 306.23,166.026 307.564,167.026 308.5,168.5C 306.368,168.446 305.035,167.446 304.5,165.5 Z"/></g>
<g><path style="opacity:0.294" fill="#a6a3a2" d="M 193.5,166.5 C 193.027,167.906 192.027,168.573 190.5,168.5C 190.973,167.094 191.973,166.427 193.5,166.5 Z"/></g>
<g><path style="opacity:0.016" fill="#d7d5d5" d="M 308.5,168.5 C 310.027,168.427 311.027,169.094 311.5,170.5C 309.973,170.573 308.973,169.906 308.5,168.5 Z"/></g>
<g><path style="opacity:0.467" fill="#8c8988" d="M 190.5,168.5 C 189.415,170.587 187.749,171.92 185.5,172.5C 186.585,170.413 188.251,169.08 190.5,168.5 Z"/></g>
<g><path style="opacity:0.004" fill="#c8c6c5" d="M 311.5,170.5 C 313.754,171.124 315.421,172.457 316.5,174.5C 314.205,173.864 312.539,172.531 311.5,170.5 Z"/></g>
<g><path style="opacity:0.306" fill="#b1afae" d="M 316.5,174.5 C 317.833,175.167 318.833,176.167 319.5,177.5C 317.5,177.5 316.5,176.5 316.5,174.5 Z"/></g>
<g><path style="opacity:0.306" fill="#bbb8b7" d="M 321.5,179.5 C 324.243,181.239 326.243,183.573 327.5,186.5C 324.757,184.761 322.757,182.427 321.5,179.5 Z"/></g>
<g><path style="opacity:0.329" fill="#afadac" d="M 185.5,172.5 C 180.833,177.833 175.833,182.833 170.5,187.5C 174.5,181.5 179.5,176.5 185.5,172.5 Z"/></g>
<g><path style="opacity:0.337" fill="#a2a09e" d="M 327.5,186.5 C 329.262,187.262 330.262,188.596 330.5,190.5C 328.738,189.738 327.738,188.404 327.5,186.5 Z"/></g>
<g><path style="opacity:0.141" fill="#c9c6c5" d="M 170.5,187.5 C 170.573,189.027 169.906,190.027 168.5,190.5C 168.427,188.973 169.094,187.973 170.5,187.5 Z"/></g>
<g><path style="opacity:0.227" fill="#b4b2b1" d="M 168.5,190.5 C 168.262,192.404 167.262,193.738 165.5,194.5C 165.738,192.596 166.738,191.262 168.5,190.5 Z"/></g>
<g><path style="opacity:0.196" fill="#a1a09f" d="M 330.5,190.5 C 331.906,190.973 332.573,191.973 332.5,193.5C 331.094,193.027 330.427,192.027 330.5,190.5 Z"/></g>
<g><path style="opacity:0.212" fill="#a4a09f" d="M 332.5,193.5 C 333.906,193.973 334.573,194.973 334.5,196.5C 333.094,196.027 332.427,195.027 332.5,193.5 Z"/></g>
<g><path style="opacity:0.133" fill="#bebebd" d="M 164.5,196.5 C 164.573,198.027 163.906,199.027 162.5,199.5C 162.427,197.973 163.094,196.973 164.5,196.5 Z"/></g>
<g><path style="opacity:0.125" fill="#b8b6b6" d="M 334.5,196.5 C 335.906,196.973 336.573,197.973 336.5,199.5C 335.094,199.027 334.427,198.027 334.5,196.5 Z"/></g>
<g><path style="opacity:0.059" fill="#d3d2d1" d="M 162.5,199.5 C 161.341,203.151 159.674,206.485 157.5,209.5C 158.127,205.58 159.793,202.247 162.5,199.5 Z"/></g>
<g><path style="opacity:0.016" fill="#e4e3e2" d="M 336.5,199.5 C 344.356,211.229 348.689,224.229 349.5,238.5C 347.181,224.918 342.848,211.918 336.5,199.5 Z"/></g>
<g><path style="opacity:0.62" fill="#999594" d="M 155.5,214.5 C 155.88,216.698 155.213,218.365 153.5,219.5C 153.402,217.447 154.069,215.78 155.5,214.5 Z"/></g>
<g><path style="opacity:1" fill="#110b07" d="M 249.5,217.5 C 255.176,217.334 260.843,217.501 266.5,218C 268.329,218.273 269.829,219.107 271,220.5C 275.6,230.467 279.1,240.801 281.5,251.5C 281.485,253.634 280.985,255.634 280,257.5C 271.927,264.784 263.76,271.951 255.5,279C 253.655,280.128 251.655,280.628 249.5,280.5C 248.448,280.649 247.448,280.483 246.5,280C 237.4,272.903 228.9,265.069 221,256.5C 220.077,254.966 219.577,253.299 219.5,251.5C 222.116,241.15 225.616,231.15 230,221.5C 231.167,220.333 232.333,219.167 233.5,218C 238.823,217.501 244.156,217.334 249.5,217.5 Z"/></g>
<g><path style="opacity:0.239" fill="#c8c6c6" d="M 153.5,221.5 C 152.403,227.34 151.069,233.006 149.5,238.5C 149.382,233.02 150.215,227.686 152,222.5C 152.383,221.944 152.883,221.611 153.5,221.5 Z"/></g>
<g><path style="opacity:0.094" fill="#c7c6c5" d="M 149.5,260.5 C 151.249,266.289 152.582,272.289 153.5,278.5C 150.936,272.9 149.603,266.9 149.5,260.5 Z"/></g>
<g><path style="opacity:0.018" fill="#dbdada" d="M 153.5,278.5 C 154.738,280.214 155.405,282.214 155.5,284.5C 153.926,282.898 153.259,280.898 153.5,278.5 Z"/></g>
<g><path style="opacity:0.106" fill="#c4c3c0" d="M 155.5,284.5 C 156.931,285.78 157.598,287.447 157.5,289.5C 156.069,288.22 155.402,286.553 155.5,284.5 Z"/></g>
<g><path style="opacity:0.047" fill="#d0cfce" d="M 157.5,289.5 C 159.674,292.515 161.341,295.849 162.5,299.5C 159.793,296.753 158.127,293.42 157.5,289.5 Z"/></g>
<g><path style="opacity:0.112" fill="#e9e9e9" d="M 349.5,260.5 C 348.52,282.116 340.687,300.783 326,316.5C 296.65,347.793 261.483,357.46 220.5,345.5C 226.498,346.599 232.498,347.766 238.5,349C 245.833,349.667 253.167,349.667 260.5,349C 310.679,339.987 340.346,310.487 349.5,260.5 Z"/></g>
<g><path style="opacity:0.584" fill="#898482" d="M 163.5,301.5 C 165.048,301.821 165.715,302.821 165.5,304.5C 164.599,303.71 163.932,302.71 163.5,301.5 Z"/></g>
<g><path style="opacity:0.008" fill="#d9d8d8" d="M 168.5,308.5 C 169.906,308.973 170.573,309.973 170.5,311.5C 169.094,311.027 168.427,310.027 168.5,308.5 Z"/></g>
<g><path style="opacity:0.004" fill="#d8d7d7" d="M 171.5,312.5 C 173.587,313.585 174.92,315.251 175.5,317.5C 173.413,316.415 172.08,314.749 171.5,312.5 Z"/></g>
<g><path style="opacity:0.282" fill="#b1afad" d="M 175.5,317.5 C 176.833,317.5 177.5,318.167 177.5,319.5C 176.5,319.167 175.833,318.5 175.5,317.5 Z"/></g>
<g><path style="opacity:0.325" fill="#b6b4b3" d="M 179.5,321.5 C 182.427,322.757 184.761,324.757 186.5,327.5C 183.573,326.243 181.239,324.243 179.5,321.5 Z"/></g>
<g><path style="opacity:0.263" fill="#aaa9a7" d="M 186.5,327.5 C 188.404,327.738 189.738,328.738 190.5,330.5C 188.596,330.262 187.262,329.262 186.5,327.5 Z"/></g>
<g><path style="opacity:0.231" fill="#b4b2b1" d="M 190.5,330.5 C 192.404,330.738 193.738,331.738 194.5,333.5C 192.596,333.262 191.262,332.262 190.5,330.5 Z"/></g>
<g><path style="opacity:0.161" fill="#bdbdbc" d="M 196.5,334.5 C 198.027,334.427 199.027,335.094 199.5,336.5C 197.973,336.573 196.973,335.906 196.5,334.5 Z"/></g>
<g><path style="opacity:0.059" fill="#d8d6d6" d="M 199.5,336.5 C 202.331,337.079 204.664,338.412 206.5,340.5C 203.669,339.921 201.336,338.588 199.5,336.5 Z"/></g>
<g><path style="opacity:0.027" fill="#dedddb" d="M 206.5,340.5 C 211.467,341.567 216.134,343.234 220.5,345.5C 215.428,344.74 210.761,343.073 206.5,340.5 Z"/></g>
</svg>
