<svg xmlns="http://www.w3.org/2000/svg" version="1.1" xmlns:xlink="http://www.w3.org/1999/xlink" xmlns:svgjs="http://svgjs.dev/svgjs" width="2000" height="287" viewBox="0 0 2000 287"><g transform="matrix(1,0,0,1,-1.2121212121212466,0.2796772554995357)"><svg viewBox="0 0 396 57" data-background-color="#ffffff" preserveAspectRatio="xMidYMid meet" height="287" width="2000" xmlns="http://www.w3.org/2000/svg" xmlns:xlink="http://www.w3.org/1999/xlink"><g id="tight-bounds" transform="matrix(1,0,0,1,0.2400000000000091,-0.05554565701558545)"><svg viewBox="0 0 395.52 57.111091314031185" height="57.111091314031185" width="395.52"><g><svg viewBox="0 0 395.52 57.111091314031185" height="57.111091314031185" width="395.52"><g><svg viewBox="0 0 395.52 57.111091314031185" height="57.111091314031185" width="395.52"><g id="textblocktransform"><svg viewBox="0 0 395.52 57.111091314031185" height="57.111091314031185" width="395.52" id="textblock"><g><svg viewBox="0 0 395.52 57.111091314031185" height="57.111091314031185" width="395.52"><g transform="matrix(1,0,0,1,0,0)"><svg width="395.52" viewBox="1.81 -37.5 263.06 37.99" height="57.111091314031185" data-palette-color="#c8b568"><path d="M22.19-9.16L22.19-9.16Q22.19-11.5 20.54-12.77 18.9-14.04 14.6-15.33 10.3-16.63 7.76-18.21L7.76-18.21Q2.91-21.26 2.91-26.17L2.91-26.17Q2.91-30.47 6.41-33.25 9.91-36.04 15.5-36.04L15.5-36.04Q19.21-36.04 22.12-34.67 25.02-33.3 26.68-30.77 28.34-28.25 28.34-25.17L28.34-25.17 22.19-25.17Q22.19-27.95 20.45-29.53 18.7-31.1 15.45-31.1L15.45-31.1Q12.43-31.1 10.75-29.81 9.08-28.52 9.08-26.2L9.08-26.2Q9.08-24.24 10.89-22.94 12.7-21.63 16.85-20.4 21-19.17 23.51-17.59 26.03-16.02 27.2-13.98 28.37-11.94 28.37-9.2L28.37-9.2Q28.37-4.76 24.96-2.14 21.56 0.49 15.72 0.49L15.72 0.49Q11.87 0.49 8.63-0.94 5.4-2.37 3.6-4.88 1.81-7.4 1.81-10.74L1.81-10.74 7.98-10.74Q7.98-7.71 9.99-6.05 11.99-4.39 15.72-4.39L15.72-4.39Q18.95-4.39 20.57-5.7 22.19-7.01 22.19-9.16ZM44.06-4.25L44.06-4.25Q46.29-4.25 47.75-5.54 49.22-6.84 49.31-8.74L49.31-8.74 54.9-8.74Q54.81-6.27 53.37-4.14 51.93-2 49.46-0.76 46.99 0.49 44.14 0.49L44.14 0.49Q38.6 0.49 35.35-3.1 32.1-6.69 32.1-13.01L32.1-13.01 32.1-13.62Q32.1-19.65 35.32-23.28 38.55-26.9 44.11-26.9L44.11-26.9Q48.83-26.9 51.79-24.16 54.76-21.41 54.9-16.94L54.9-16.94 49.31-16.94Q49.22-19.21 47.76-20.68 46.31-22.14 44.06-22.14L44.06-22.14Q41.18-22.14 39.62-20.06 38.06-17.97 38.03-13.72L38.03-13.72 38.03-12.77Q38.03-8.47 39.58-6.36 41.14-4.25 44.06-4.25ZM58.27-13.16L58.27-13.45Q58.27-17.33 59.81-20.45 61.35-23.56 64.13-25.23 66.91-26.9 70.53-26.9L70.53-26.9Q75.87-26.9 79.21-23.46 82.54-20.02 82.81-14.33L82.81-14.33 82.83-12.94Q82.83-9.03 81.33-5.96 79.83-2.88 77.03-1.2 74.24 0.49 70.58 0.49L70.58 0.49Q64.99 0.49 61.63-3.23 58.27-6.96 58.27-13.16L58.27-13.16ZM64.2-12.94L64.2-12.94Q64.2-8.86 65.89-6.56 67.57-4.25 70.58-4.25 73.58-4.25 75.25-6.59 76.92-8.94 76.92-13.45L76.92-13.45Q76.92-17.46 75.2-19.8 73.48-22.14 70.53-22.14L70.53-22.14Q67.62-22.14 65.91-19.84 64.2-17.53 64.2-12.94ZM101.7-26.56L101.68-21Q100.51-21.19 99.26-21.19L99.26-21.19Q95.18-21.19 93.77-18.07L93.77-18.07 93.77 0 87.83 0 87.83-26.42 93.5-26.42 93.64-23.46Q95.79-26.9 99.6-26.9L99.6-26.9Q100.87-26.9 101.7-26.56L101.7-26.56ZM116.59 0.49L116.59 0.49Q110.95 0.49 107.45-3.06 103.95-6.62 103.95-12.52L103.95-12.52 103.95-13.26Q103.95-17.21 105.47-20.32 107-23.44 109.76-25.17 112.51-26.9 115.91-26.9L115.91-26.9Q121.3-26.9 124.25-23.46 127.19-20.02 127.19-13.72L127.19-13.72 127.19-11.33 109.93-11.33Q110.2-8.06 112.11-6.15 114.03-4.25 116.93-4.25L116.93-4.25Q121.01-4.25 123.57-7.54L123.57-7.54 126.77-4.49Q125.19-2.12 122.54-0.82 119.89 0.49 116.59 0.49ZM115.88-22.14L115.88-22.14Q113.44-22.14 111.94-20.43 110.44-18.73 110.02-15.67L110.02-15.67 121.33-15.67 121.33-16.11Q121.13-19.09 119.74-20.62 118.35-22.14 115.88-22.14ZM169.03-35.55L169.03-30.57 157.94-30.57 157.94 0 151.82 0 151.82-30.57 140.83-30.57 140.83-35.55 169.03-35.55ZM185.38-26.56L185.36-21Q184.19-21.19 182.94-21.19L182.94-21.19Q178.86-21.19 177.45-18.07L177.45-18.07 177.45 0 171.52 0 171.52-26.42 177.18-26.42 177.33-23.46Q179.47-26.9 183.28-26.9L183.28-26.9Q184.55-26.9 185.38-26.56L185.38-26.56ZM210.21 0L204.15 0Q203.76-0.76 203.47-2.47L203.47-2.47Q200.64 0.49 196.54 0.49L196.54 0.49Q192.56 0.49 190.04-1.78 187.53-4.05 187.53-7.4L187.53-7.4Q187.53-11.62 190.67-13.88 193.8-16.14 199.64-16.14L199.64-16.14 203.28-16.14 203.28-17.87Q203.28-19.92 202.13-21.15 200.98-22.39 198.64-22.39L198.64-22.39Q196.61-22.39 195.32-21.37 194.02-20.36 194.02-18.8L194.02-18.8 188.09-18.8Q188.09-20.97 189.53-22.86 190.97-24.76 193.45-25.83 195.93-26.9 198.98-26.9L198.98-26.9Q203.62-26.9 206.38-24.57 209.14-22.24 209.21-18.02L209.21-18.02 209.21-6.1Q209.21-2.54 210.21-0.42L210.21-0.42 210.21 0ZM197.64-4.27L197.64-4.27Q199.39-4.27 200.94-5.13 202.49-5.98 203.28-7.42L203.28-7.42 203.28-12.4 200.08-12.4Q196.78-12.4 195.12-11.25 193.46-10.11 193.46-8.01L193.46-8.01Q193.46-6.3 194.6-5.29 195.73-4.27 197.64-4.27ZM226.27-4.25L226.27-4.25Q228.49-4.25 229.96-5.54 231.42-6.84 231.52-8.74L231.52-8.74 237.11-8.74Q237.01-6.27 235.57-4.14 234.13-2 231.67-0.76 229.2 0.49 226.34 0.49L226.34 0.49Q220.8 0.49 217.56-3.1 214.31-6.69 214.31-13.01L214.31-13.01 214.31-13.62Q214.31-19.65 217.53-23.28 220.75-26.9 226.32-26.9L226.32-26.9Q231.03-26.9 234-24.16 236.96-21.41 237.11-16.94L237.11-16.94 231.52-16.94Q231.42-19.21 229.97-20.68 228.52-22.14 226.27-22.14L226.27-22.14Q223.39-22.14 221.83-20.06 220.27-17.97 220.24-13.72L220.24-13.72 220.24-12.77Q220.24-8.47 221.79-6.36 223.34-4.25 226.27-4.25ZM258.01 0L250.17-11.33 247.53-8.62 247.53 0 241.6 0 241.6-37.5 247.53-37.5 247.53-15.87 249.39-18.19 256.69-26.42 263.82-26.42 254-15.41 264.87 0 258.01 0Z" opacity="1" transform="matrix(1,0,0,1,0,0)" fill="#c8b568" class="wordmark-text-0" data-fill-palette-color="primary" id="text-0"></path></svg></g></svg></g></svg></g></svg></g><g></g></svg></g><defs></defs></svg><rect width="395.52" height="57.111091314031185" fill="none" stroke="none" visibility="hidden"></rect></g></svg></g></svg>